<?xml version="1.0" encoding="UTF-8"?>
<!DOCTYPE svg PUBLIC "-//W3C//DTD SVG 1.1//EN" "http://www.w3.org/Graphics/SVG/1.1/DTD/svg11.dtd">
<svg xmlns="http://www.w3.org/2000/svg" version="1.1" width="2560px" height="544px" style="shape-rendering:geometricPrecision; text-rendering:geometricPrecision; image-rendering:optimizeQuality; fill-rule:evenodd; clip-rule:evenodd" xmlns:xlink="http://www.w3.org/1999/xlink">
<g><path style="opacity:1" fill="none" d="M -0.5,-0.5 C 852.833,-0.5 1706.17,-0.5 2559.5,-0.5C 2559.5,180.833 2559.5,362.167 2559.5,543.5C 1706.17,543.5 852.833,543.5 -0.5,543.5C -0.5,362.167 -0.5,180.833 -0.5,-0.5 Z"/></g>
<g><path style="opacity:1" fill="none" d="M 725.5,67.5 C 725.333,130.168 725.5,192.834 726,255.5C 726.717,254.956 727.217,254.289 727.5,253.5C 740.638,233.528 757.971,218.361 779.5,208C 817.966,196.819 850.466,206.319 877,236.5C 894.415,259.096 904.082,284.763 906,313.5C 910.424,357.843 898.757,397.177 871,431.5C 826.686,478.695 774.519,489.862 714.5,465C 702.27,459.639 690.77,453.139 680,445.5C 679.97,338.153 679.303,230.819 678,123.5C 676.834,111.498 670.334,105.165 658.5,104.5C 652.44,104.806 646.607,106.14 641,108.5C 640.228,108.355 639.561,108.022 639,107.5C 638.311,104.592 637.145,101.925 635.5,99.5C 660.689,88.7417 686.022,78.2417 711.5,68C 716.155,67.5008 720.821,67.3342 725.5,67.5 Z"/></g>
<g><path style="opacity:1" fill="#c3c3c4" d="M 725.5,67.5 C 726.167,129.5 726.833,191.5 727.5,253.5C 727.217,254.289 726.717,254.956 726,255.5C 725.5,192.834 725.333,130.168 725.5,67.5 Z"/></g>
<g><path style="opacity:1" fill="none" d="M 988.5,67.5 C 1012.07,66.1616 1023.9,77.1616 1024,100.5C 1018.85,119.003 1006.68,126.836 987.5,124C 968.636,115.755 962.802,101.921 970,82.5C 974.592,75.3937 980.758,70.3937 988.5,67.5 Z"/></g>
<g><path style="opacity:1" fill="#fbfbfc" d="M 1880.5,67.5 C 1898.23,65.602 1910.06,72.9353 1916,89.5C 1916.78,114.694 1904.61,126.194 1879.5,124C 1859.95,115.017 1854.45,100.517 1863,80.5C 1867.63,74.3462 1873.46,70.0128 1880.5,67.5 Z"/></g>
<g><path style="opacity:1" fill="none" d="M 552.5,202.5 C 552.333,221.836 552.5,241.17 553,260.5C 554.039,259.756 554.539,258.756 554.5,257.5C 564.311,239.413 577.311,223.913 593.5,211C 609.094,200.641 625.094,199.974 641.5,209C 658.975,223.693 659.975,239.36 644.5,256C 636.443,261.067 628.11,261.733 619.5,258C 611.336,252.417 603.003,247.084 594.5,242C 590.705,241.163 587.039,241.496 583.5,243C 576.958,247.875 571.458,253.708 567,260.5C 561.776,268.486 557.11,276.819 553,285.5C 552.333,330.833 552.333,376.167 553,421.5C 555.327,448.652 570.16,461.319 597.5,459.5C 597.5,462.833 597.5,466.167 597.5,469.5C 553.997,469.168 510.663,469.501 467.5,470.5C 466.833,470.5 466.167,470.5 465.5,470.5C 416.003,469.501 366.336,469.168 316.5,469.5C 316.5,466.167 316.5,462.833 316.5,459.5C 325.795,459.007 334.795,457.173 343.5,454C 353.611,447.859 357.111,439.026 354,427.5C 344.514,398.525 333.348,370.191 320.5,342.5C 270.933,341.17 221.433,341.17 172,342.5C 162.609,364.95 152.942,387.283 143,409.5C 128.757,441.012 138.923,457.345 173.5,458.5C 175.607,459.468 177.941,459.802 180.5,459.5C 180.5,462.833 180.5,466.167 180.5,469.5C 140.5,469.5 100.5,469.5 60.5,469.5C 60.1796,466.102 60.513,462.768 61.5,459.5C 70.7467,457.439 79.7467,454.605 88.5,451C 97.2591,443.245 104.092,434.078 109,423.5C 113.273,415.288 117.273,406.955 121,398.5C 166.205,291.722 211.705,185.055 257.5,78.5C 261.167,77.1667 264.833,77.1667 268.5,78.5C 316.057,192.615 363.891,306.615 412,420.5C 428.073,454.113 454.24,465.946 490.5,456C 500,451.201 505.167,443.367 506,432.5C 506.937,374.819 506.603,317.152 505,259.5C 503.963,253.594 501.463,248.427 497.5,244C 487.168,239.525 476.835,239.692 466.5,244.5C 464.921,241.732 463.588,238.732 462.5,235.5C 463.936,234.066 465.602,232.9 467.5,232C 491.796,222.844 515.796,213.178 539.5,203C 543.821,202.501 548.154,202.334 552.5,202.5 Z"/></g>
<g><path style="opacity:1" fill="none" d="M 1151.5,209.5 C 1171.33,210.497 1191.33,210.83 1211.5,210.5C 1211.5,217.167 1211.5,223.833 1211.5,230.5C 1191.5,230.5 1171.5,230.5 1151.5,230.5C 1151.33,291.168 1151.5,351.834 1152,412.5C 1154.59,437.539 1167.76,446.039 1191.5,438C 1199.28,433.557 1204.94,427.224 1208.5,419C 1212.21,418.175 1215.88,418.341 1219.5,419.5C 1211.67,443.318 1196.33,460.484 1173.5,471C 1149.6,478.697 1129.76,472.863 1114,453.5C 1108.56,443.188 1105.56,432.188 1105,420.5C 1104.5,357.168 1104.33,293.834 1104.5,230.5C 1091.34,229.504 1078.01,229.171 1064.5,229.5C 1064.5,226.5 1064.5,223.5 1064.5,220.5C 1089.53,207.974 1109.37,189.641 1124,165.5C 1130.82,152.859 1136.82,139.859 1142,126.5C 1145.06,125.549 1148.22,125.216 1151.5,125.5C 1151.5,153.5 1151.5,181.5 1151.5,209.5 Z"/></g>
<g><path style="opacity:1" fill="none" d="M 311.5,319.5 C 268.337,320.499 225.003,320.832 181.5,320.5C 202.918,268.91 224.918,217.577 247.5,166.5C 269.656,217.147 290.989,268.147 311.5,319.5 Z"/></g>
<g><path style="opacity:1" fill="#4d4d50" d="M 552.5,202.5 C 553.167,220.833 553.833,239.167 554.5,257.5C 554.539,258.756 554.039,259.756 553,260.5C 552.5,241.17 552.333,221.836 552.5,202.5 Z"/></g>
<g><path style="opacity:1" fill="#fefefe" d="M 1005.5,203.5 C 1009.83,203.5 1014.17,203.5 1018.5,203.5C 1018.17,275.669 1018.5,347.669 1019.5,419.5C 1018.93,430.964 1021.43,441.63 1027,451.5C 1030.3,454.567 1034.13,456.733 1038.5,458C 1045.12,459.137 1051.79,459.637 1058.5,459.5C 1058.5,462.833 1058.5,466.167 1058.5,469.5C 1016.83,469.5 975.167,469.5 933.5,469.5C 933.5,466.5 933.5,463.5 933.5,460.5C 935.735,460.795 937.735,460.461 939.5,459.5C 955.57,460.912 965.737,453.912 970,438.5C 970.83,433.857 971.497,429.19 972,424.5C 972.667,375.5 972.667,326.5 972,277.5C 971.168,270.516 970.501,263.516 970,256.5C 968.928,251.188 966.428,246.688 962.5,243C 952.738,239.671 943.072,240.171 933.5,244.5C 931.839,241.294 930.172,237.961 928.5,234.5C 954.105,223.966 979.772,213.633 1005.5,203.5 Z"/></g>
<g><path style="opacity:1" fill="#a8a8a9" d="M 1005.5,203.5 C 1009.97,202.514 1014.64,202.181 1019.5,202.5C 1019.5,274.833 1019.5,347.167 1019.5,419.5C 1018.5,347.669 1018.17,275.669 1018.5,203.5C 1014.17,203.5 1009.83,203.5 1005.5,203.5 Z"/></g>
<g><path style="opacity:1" fill="none" d="M 1339.5,459.5 C 1340.57,460.434 1341.9,460.768 1343.5,460.5C 1343.5,463.5 1343.5,466.5 1343.5,469.5C 1299.5,469.5 1255.5,469.5 1211.5,469.5C 1211.5,466.5 1211.5,463.5 1211.5,460.5C 1212.79,460.737 1213.79,460.404 1214.5,459.5C 1224.7,460.064 1234.03,457.564 1242.5,452C 1247.44,446.858 1250.28,440.691 1251,433.5C 1251.67,378.167 1251.67,322.833 1251,267.5C 1251.49,246.982 1241.65,238.149 1221.5,241C 1218.17,242.166 1214.84,243.332 1211.5,244.5C 1210.3,241.574 1209.3,238.574 1208.5,235.5C 1233.39,223.574 1259.05,212.908 1285.5,203.5C 1289.83,203.5 1294.17,203.5 1298.5,203.5C 1298.17,222.91 1298.5,241.577 1299.5,259.5C 1310,240.156 1324,223.656 1341.5,210C 1362.45,197.995 1380.95,200.828 1397,218.5C 1405.56,235.538 1401.73,249.038 1385.5,259C 1380.84,259.834 1376.17,260.168 1371.5,260C 1361.4,255.557 1352.06,249.89 1343.5,243C 1338.81,241.068 1334.14,241.068 1329.5,243C 1316.57,254.605 1306.73,268.439 1300,284.5C 1299.04,333.523 1299.38,382.523 1301,431.5C 1306.31,450.925 1319.14,460.258 1339.5,459.5 Z"/></g>
<g><path style="opacity:1" fill="#a8a8a9" d="M 1285.5,203.5 C 1289.97,202.514 1294.64,202.181 1299.5,202.5C 1299.5,221.5 1299.5,240.5 1299.5,259.5C 1298.5,241.577 1298.17,222.91 1298.5,203.5C 1294.17,203.5 1289.83,203.5 1285.5,203.5 Z"/></g>
<g><path style="opacity:1" fill="none" d="M 1637.5,418.5 C 1638.49,423.305 1638.82,428.305 1638.5,433.5C 1629,446.499 1617.67,457.666 1604.5,467C 1593.76,474.178 1582.09,476.511 1569.5,474C 1559.57,471.067 1553.4,464.567 1551,454.5C 1549.35,447.26 1548.35,439.927 1548,432.5C 1533.78,443.718 1519.28,454.552 1504.5,465C 1478.33,479.599 1452.66,478.932 1427.5,463C 1408.12,445.051 1400.62,422.884 1405,396.5C 1408.43,380.147 1416.59,366.647 1429.5,356C 1442.32,346.084 1455.99,337.418 1470.5,330C 1495.8,318.271 1521.63,307.771 1548,298.5C 1549.12,281.221 1547.45,264.221 1543,247.5C 1537.28,232.39 1526.44,223.556 1510.5,221C 1494.02,217.824 1479.85,221.99 1468,233.5C 1465.57,236.934 1463.57,240.6 1462,244.5C 1461.67,254.833 1461.33,265.167 1461,275.5C 1456.27,293.217 1445.1,299.383 1427.5,294C 1417.32,287.975 1412.99,278.975 1414.5,267C 1414.25,254.997 1418.09,244.497 1426,235.5C 1447.87,211.92 1475.04,200.92 1507.5,202.5C 1525.76,202.465 1543.43,205.632 1560.5,212C 1583.24,223.277 1594.4,241.777 1594,267.5C 1594.33,314.167 1594.67,360.833 1595,407.5C 1595.12,415.947 1596.12,424.281 1598,432.5C 1601.32,438.908 1606.49,441.075 1613.5,439C 1622.25,433.081 1630.25,426.247 1637.5,418.5 Z"/></g>
<g><path style="opacity:1" fill="none" d="M 1897.5,203.5 C 1901.83,203.5 1906.17,203.5 1910.5,203.5C 1910.17,276.669 1910.5,349.669 1911.5,422.5C 1910.58,433.901 1913.58,444.068 1920.5,453C 1929.72,458.347 1939.72,460.514 1950.5,459.5C 1950.5,462.833 1950.5,466.167 1950.5,469.5C 1908.83,469.5 1867.17,469.5 1825.5,469.5C 1825.5,466.5 1825.5,463.5 1825.5,460.5C 1827.74,460.795 1829.74,460.461 1831.5,459.5C 1847.57,460.912 1857.74,453.912 1862,438.5C 1862.67,434.5 1863.33,430.5 1864,426.5C 1864.67,377.5 1864.67,328.5 1864,279.5C 1864.6,267.478 1862.26,256.144 1857,245.5C 1853.68,241.756 1849.51,240.089 1844.5,240.5C 1837.95,240.811 1831.61,242.144 1825.5,244.5C 1823.68,242.584 1822.52,240.251 1822,237.5C 1815.82,258.676 1802.65,264.843 1782.5,256C 1775.77,250.941 1768.77,246.274 1761.5,242C 1756.89,240.993 1752.56,241.66 1748.5,244C 1736.41,255.695 1726.91,269.195 1720,284.5C 1719.33,330.167 1719.33,375.833 1720,421.5C 1721.94,448.923 1736.77,461.59 1764.5,459.5C 1764.5,462.833 1764.5,466.167 1764.5,469.5C 1720.5,469.5 1676.5,469.5 1632.5,469.5C 1632.5,466.167 1632.5,462.833 1632.5,459.5C 1643.1,459.964 1653.1,457.798 1662.5,453C 1668.2,447.762 1671.37,441.262 1672,433.5C 1672.67,376.5 1672.67,319.5 1672,262.5C 1671.35,248.855 1664.35,241.522 1651,240.5C 1644.37,241.283 1637.87,242.616 1631.5,244.5C 1631.05,241.124 1630.38,237.791 1629.5,234.5C 1654.95,223.573 1680.62,213.239 1706.5,203.5C 1710.5,203.5 1714.5,203.5 1718.5,203.5C 1718.17,222.512 1718.5,241.512 1719.5,260.5C 1720.11,260.376 1720.44,260.043 1720.5,259.5C 1729.6,241.492 1741.93,225.992 1757.5,213C 1772.82,201.244 1789.15,199.577 1806.5,208C 1811,211.167 1814.83,215 1818,219.5C 1820.71,223.785 1821.87,228.452 1821.5,233.5C 1846.79,223.506 1872.12,213.506 1897.5,203.5 Z"/></g>
<g><path style="opacity:1" fill="#dadadb" d="M 1706.5,203.5 C 1710.63,202.515 1714.97,202.182 1719.5,202.5C 1719.17,221.674 1719.5,240.674 1720.5,259.5C 1720.44,260.043 1720.11,260.376 1719.5,260.5C 1718.5,241.512 1718.17,222.512 1718.5,203.5C 1714.5,203.5 1710.5,203.5 1706.5,203.5 Z"/></g>
<g><path style="opacity:1" fill="#a7a7a8" d="M 1897.5,203.5 C 1901.97,202.514 1906.64,202.181 1911.5,202.5C 1911.5,275.833 1911.5,349.167 1911.5,422.5C 1910.5,349.669 1910.17,276.669 1910.5,203.5C 1906.17,203.5 1901.83,203.5 1897.5,203.5 Z"/></g>
<g><path style="opacity:1" fill="none" d="M 2060.5,202.5 C 2082.42,201.113 2103.75,203.946 2124.5,211C 2148.54,221.558 2160.71,240.058 2161,266.5C 2161.07,320.181 2161.74,373.848 2163,427.5C 2167.38,440.454 2175.21,442.954 2186.5,435C 2192.97,429.532 2199.14,423.699 2205,417.5C 2205.67,422.833 2205.67,428.167 2205,433.5C 2196.87,445.293 2187.04,455.459 2175.5,464C 2160.65,475.499 2144.65,477.499 2127.5,470C 2122.98,466.464 2119.81,461.964 2118,456.5C 2116.13,448.936 2114.79,441.269 2114,433.5C 2098.94,445.279 2083.44,456.446 2067.5,467C 2049.93,475.737 2031.59,477.737 2012.5,473C 1984.13,461.142 1970.13,439.642 1970.5,408.5C 1970.29,395.386 1973.79,383.386 1981,372.5C 1991.95,358.624 2005.12,347.457 2020.5,339C 2050.64,323.671 2081.64,310.171 2113.5,298.5C 2116.38,278.866 2114.22,259.866 2107,241.5C 2100.52,229.844 2090.69,223.01 2077.5,221C 2059.72,217.338 2044.89,222.172 2033,235.5C 2031.39,238.382 2030.06,241.382 2029,244.5C 2028.91,256.224 2028.25,267.89 2027,279.5C 2021.08,293.543 2010.58,298.71 1995.5,295C 1982.37,287.217 1977.54,275.717 1981,260.5C 1985.35,242.806 1995.19,228.973 2010.5,219C 2025.94,209.48 2042.61,203.98 2060.5,202.5 Z"/></g>
<g><path style="opacity:1" fill="none" d="M 2285.5,203.5 C 2285.5,220.833 2285.5,238.167 2285.5,255.5C 2286.79,255.737 2287.79,255.404 2288.5,254.5C 2303.29,236.205 2320.96,221.372 2341.5,210C 2364.33,200.548 2386.66,201.548 2408.5,213C 2424.16,225.821 2433.5,242.321 2436.5,262.5C 2436.53,268.051 2437.19,273.384 2438.5,278.5C 2438.5,279.833 2438.5,281.167 2438.5,282.5C 2438.33,329.501 2438.5,376.501 2439,423.5C 2439.19,426.036 2439.69,428.369 2440.5,430.5C 2440.35,445.405 2447.35,454.905 2461.5,459C 2467.16,459.499 2472.82,459.666 2478.5,459.5C 2478.5,463.167 2478.5,466.833 2478.5,470.5C 2436.17,470.5 2393.83,470.5 2351.5,470.5C 2351.5,466.833 2351.5,463.167 2351.5,459.5C 2361.59,460.436 2371.26,458.936 2380.5,455C 2386.05,450.728 2389.72,445.228 2391.5,438.5C 2392.31,436.369 2392.81,434.036 2393,431.5C 2393.67,386.167 2393.67,340.833 2393,295.5C 2392.82,291.975 2392.32,288.641 2391.5,285.5C 2389.17,244.012 2368.17,229.512 2328.5,242C 2312.01,249.826 2297.84,260.659 2286,274.5C 2285.33,324.5 2285.33,374.5 2286,424.5C 2286.15,451.201 2299.65,463.034 2326.5,460C 2327.83,463.333 2327.83,466.667 2326.5,470C 2284.5,470.667 2242.5,470.667 2200.5,470C 2199.17,466.667 2199.17,463.333 2200.5,460C 2211.29,460.955 2221.12,458.455 2230,452.5C 2236.18,442.464 2239.01,431.464 2238.5,419.5C 2239.66,372.335 2239.83,325.002 2239,277.5C 2238.83,272.316 2238.33,267.316 2237.5,262.5C 2237.66,248.756 2230.99,241.422 2217.5,240.5C 2211.43,241.486 2205.43,242.319 2199.5,243C 2197.39,240.016 2196.73,236.849 2197.5,233.5C 2222.46,223.236 2247.46,213.069 2272.5,203C 2277.02,202.186 2281.35,202.353 2285.5,203.5 Z"/></g>
<g><path style="opacity:1" fill="#464648" d="M 2285.5,203.5 C 2285.84,220.691 2286.84,237.691 2288.5,254.5C 2287.79,255.404 2286.79,255.737 2285.5,255.5C 2285.5,238.167 2285.5,220.833 2285.5,203.5 Z"/></g>
<g><path style="opacity:1" fill="#353537" d="M 1151.5,209.5 C 1171.83,209.5 1192.17,209.5 1212.5,209.5C 1212.82,216.687 1212.49,223.687 1211.5,230.5C 1211.5,223.833 1211.5,217.167 1211.5,210.5C 1191.33,210.83 1171.33,210.497 1151.5,209.5 Z"/></g>
<g><path style="opacity:1" fill="#a9a9aa" d="M 1064.5,220.5 C 1064.5,223.5 1064.5,226.5 1064.5,229.5C 1078.01,229.171 1091.34,229.504 1104.5,230.5C 1090.83,230.5 1077.17,230.5 1063.5,230.5C 1063.19,226.958 1063.52,223.625 1064.5,220.5 Z"/></g>
<g><path style="opacity:1" fill="none" d="M 778.5,242.5 C 806.696,242.879 827.862,255.213 842,279.5C 852.75,300.67 857.917,323.17 857.5,347C 857.898,368.216 854.398,388.716 847,408.5C 839.467,425.694 827.967,439.527 812.5,450C 800.894,456.13 788.561,458.13 775.5,456C 756.675,452.005 740.509,443.171 727,429.5C 726.333,377.5 726.333,325.5 727,273.5C 740.568,257.08 757.735,246.747 778.5,242.5 Z"/></g>
<g><path style="opacity:1" fill="#b4b4b5" d="M 2436.5,262.5 C 2437.96,267.598 2438.62,272.931 2438.5,278.5C 2437.19,273.384 2436.53,268.051 2436.5,262.5 Z"/></g>
<g><path style="opacity:1" fill="#a4a4a5" d="M 2438.5,282.5 C 2439.21,331.676 2439.88,381.009 2440.5,430.5C 2439.69,428.369 2439.19,426.036 2439,423.5C 2438.5,376.501 2438.33,329.501 2438.5,282.5 Z"/></g>
<g><path style="opacity:1" fill="#9b9b9c" d="M 2391.5,285.5 C 2392.32,288.641 2392.82,291.975 2393,295.5C 2393.67,340.833 2393.67,386.167 2393,431.5C 2392.81,434.036 2392.31,436.369 2391.5,438.5C 2392.82,387.502 2392.82,336.502 2391.5,285.5 Z"/></g>
<g><path style="opacity:1" fill="#5b5b5d" d="M 2237.5,262.5 C 2238.33,267.316 2238.83,272.316 2239,277.5C 2239.83,325.002 2239.66,372.335 2238.5,419.5C 2238.75,367.16 2238.41,314.826 2237.5,262.5 Z"/></g>
<g><path style="opacity:1" fill="none" d="M 1546.5,316.5 C 1547.5,348.996 1547.83,381.662 1547.5,414.5C 1532.79,427.855 1515.79,437.022 1496.5,442C 1480.93,443.298 1468.76,437.465 1460,424.5C 1445.53,396.337 1450.37,372.17 1474.5,352C 1484.51,344.659 1495.17,338.326 1506.5,333C 1519.74,327.209 1533.08,321.709 1546.5,316.5 Z"/></g>
<g><path style="opacity:1" fill="#6c6c6e" d="M 1546.5,316.5 C 1546.56,315.957 1546.89,315.624 1547.5,315.5C 1548.83,348.664 1548.83,381.664 1547.5,414.5C 1547.83,381.662 1547.5,348.996 1546.5,316.5 Z"/></g>
<g><path style="opacity:1" fill="none" d="M 2111.5,316.5 C 2112.5,316.5 2113.5,316.5 2114.5,316.5C 2114.67,349.168 2114.5,381.835 2114,414.5C 2100.81,426.017 2085.97,434.85 2069.5,441C 2050.88,445.131 2036.38,439.298 2026,423.5C 2012.44,397.086 2016.61,373.919 2038.5,354C 2050.46,344.739 2063.46,337.073 2077.5,331C 2089.04,326.391 2100.37,321.557 2111.5,316.5 Z"/></g>
<g><path style="opacity:1" fill="#878789" d="M 311.5,319.5 C 312.043,319.56 312.376,319.893 312.5,320.5C 290.5,320.833 268.5,321.167 246.5,321.5C 224.095,321.505 202.428,321.172 181.5,320.5C 225.003,320.832 268.337,320.499 311.5,319.5 Z"/></g>
<g><path style="opacity:1" fill="#878788" d="M 1637.5,418.5 C 1637.56,417.957 1637.89,417.624 1638.5,417.5C 1639.81,422.986 1639.81,428.32 1638.5,433.5C 1638.82,428.305 1638.49,423.305 1637.5,418.5 Z"/></g>
<g><path style="opacity:1" fill="#848486" d="M 173.5,458.5 C 176.167,458.5 178.833,458.5 181.5,458.5C 181.5,462.5 181.5,466.5 181.5,470.5C 140.997,470.832 100.663,470.499 60.5,469.5C 100.5,469.5 140.5,469.5 180.5,469.5C 180.5,466.167 180.5,462.833 180.5,459.5C 177.941,459.802 175.607,459.468 173.5,458.5 Z"/></g>
<g><path style="opacity:1" fill="#878889" d="M 316.5,459.5 C 316.5,462.833 316.5,466.167 316.5,469.5C 366.336,469.168 416.003,469.501 465.5,470.5C 415.5,470.5 365.5,470.5 315.5,470.5C 315.185,466.629 315.518,462.962 316.5,459.5 Z"/></g>
<g><path style="opacity:1" fill="#888889" d="M 597.5,459.5 C 598.482,462.962 598.815,466.629 598.5,470.5C 554.833,470.5 511.167,470.5 467.5,470.5C 510.663,469.501 553.997,469.168 597.5,469.5C 597.5,466.167 597.5,462.833 597.5,459.5 Z"/></g>
<g><path style="opacity:1" fill="#8d8d8e" d="M 939.5,459.5 C 937.735,460.461 935.735,460.795 933.5,460.5C 933.5,463.5 933.5,466.5 933.5,469.5C 975.167,469.5 1016.83,469.5 1058.5,469.5C 1016.67,470.499 974.67,470.832 932.5,470.5C 932.5,466.833 932.5,463.167 932.5,459.5C 934.833,459.5 937.167,459.5 939.5,459.5 Z"/></g>
<g><path style="opacity:1" fill="#909091" d="M 1214.5,459.5 C 1213.79,460.404 1212.79,460.737 1211.5,460.5C 1211.5,463.5 1211.5,466.5 1211.5,469.5C 1255.5,469.5 1299.5,469.5 1343.5,469.5C 1343.5,466.5 1343.5,463.5 1343.5,460.5C 1341.9,460.768 1340.57,460.434 1339.5,459.5C 1341.17,459.5 1342.83,459.5 1344.5,459.5C 1344.5,463.167 1344.5,466.833 1344.5,470.5C 1299.83,470.5 1255.17,470.5 1210.5,470.5C 1210.5,466.833 1210.5,463.167 1210.5,459.5C 1211.83,459.5 1213.17,459.5 1214.5,459.5 Z"/></g>
<g><path style="opacity:1" fill="#868687" d="M 1632.5,459.5 C 1632.5,462.833 1632.5,466.167 1632.5,469.5C 1676.5,469.5 1720.5,469.5 1764.5,469.5C 1720.34,470.499 1676,470.832 1631.5,470.5C 1631.19,466.629 1631.52,462.962 1632.5,459.5 Z"/></g>
<g><path style="opacity:1" fill="#8d8d8e" d="M 1831.5,459.5 C 1829.74,460.461 1827.74,460.795 1825.5,460.5C 1825.5,463.5 1825.5,466.5 1825.5,469.5C 1867.17,469.5 1908.83,469.5 1950.5,469.5C 1908.67,470.499 1866.67,470.832 1824.5,470.5C 1824.5,466.833 1824.5,463.167 1824.5,459.5C 1826.83,459.5 1829.17,459.5 1831.5,459.5 Z"/></g>
</svg>
